<mxfile host="65bd71144e">
    <diagram id="u_6Qf5M2AlxW6b0JdmwB" name="Page-1">
        <mxGraphModel dx="1058" dy="789" grid="1" gridSize="10" guides="1" tooltips="1" connect="1" arrows="1" fold="1" page="1" pageScale="1" pageWidth="850" pageHeight="1100" math="0" shadow="0">
            <root>
                <mxCell id="0"/>
                <mxCell id="1" parent="0"/>
                <mxCell id="39" style="edgeStyle=none;html=1;entryX=0.384;entryY=-0.007;entryDx=0;entryDy=0;entryPerimeter=0;" parent="1" source="6" target="9" edge="1">
                    <mxGeometry relative="1" as="geometry"/>
                </mxCell>
                <mxCell id="6" value="&lt;b&gt;&lt;i&gt;Discover if &lt;br&gt;wasm can improve &lt;br&gt;performance&lt;br&gt;&lt;/i&gt;&lt;/b&gt;" style="shape=parallelogram;perimeter=parallelogramPerimeter;whiteSpace=wrap;html=1;fixedSize=1;fillColor=#f5f5f5;strokeColor=#666666;fontColor=#333333;rounded=1;strokeWidth=3;arcSize=9;shadow=1;fontFamily=Helvetica;" parent="1" vertex="1">
                    <mxGeometry x="180" y="270" width="150" height="80" as="geometry"/>
                </mxCell>
                <mxCell id="9" value="&lt;div&gt;&lt;b&gt;&lt;i&gt;Design and create a browser-based GIS environment which can&amp;nbsp;&lt;/i&gt;&lt;/b&gt;&lt;/div&gt;&lt;div&gt;&lt;b&gt;&lt;i&gt;effectively utilize existing geoprocessing libraries,&amp;nbsp;&lt;/i&gt;&lt;/b&gt;&lt;/div&gt;&lt;div&gt;&lt;b&gt;&lt;i&gt;using only the current state of standard client-side web technologies&lt;/i&gt;&lt;/b&gt;&lt;br&gt;&lt;/div&gt;" style="shape=parallelogram;perimeter=parallelogramPerimeter;whiteSpace=wrap;html=1;fixedSize=1;fillColor=#009900;strokeColor=#006600;fontColor=#ffffff;rounded=1;strokeWidth=3;arcSize=5;shadow=1;fontFamily=Helvetica;size=20;spacingLeft=20;spacingRight=20;" parent="1" vertex="1">
                    <mxGeometry x="180" y="410" width="430" height="100" as="geometry"/>
                </mxCell>
                <mxCell id="43" value="&lt;span style=&quot;color: rgb(0 , 0 , 0) ; font-family: &amp;#34;helvetica&amp;#34; ; font-size: 11px ; font-style: normal ; font-weight: 400 ; letter-spacing: normal ; text-align: center ; text-indent: 0px ; text-transform: none ; word-spacing: 0px ; background-color: rgb(255 , 255 , 255) ; display: inline ; float: none&quot;&gt;Solution:&lt;/span&gt;" style="edgeStyle=none;html=1;" parent="1" edge="1">
                    <mxGeometry relative="1" as="geometry">
                        <mxPoint x="585" y="230" as="sourcePoint"/>
                        <mxPoint x="575" y="270" as="targetPoint"/>
                        <mxPoint as="offset"/>
                    </mxGeometry>
                </mxCell>
                <mxCell id="10" value="&lt;i&gt;&lt;b&gt;SCG is &lt;/b&gt;&lt;br&gt;&lt;b&gt;overshadowed &lt;/b&gt;&lt;br&gt;&lt;b&gt;by server-side geoprocessing&lt;/b&gt;&lt;br&gt;&lt;/i&gt;" style="shape=parallelogram;perimeter=parallelogramPerimeter;whiteSpace=wrap;html=1;fixedSize=1;rounded=1;strokeWidth=3;arcSize=9;shadow=1;fontFamily=Helvetica;fontColor=#ffffff;strokeColor=#314354;fillColor=#647687;" parent="1" vertex="1">
                    <mxGeometry x="520" y="150" width="150" height="80" as="geometry"/>
                </mxCell>
                <mxCell id="38" style="edgeStyle=none;html=1;entryX=0.48;entryY=-0.007;entryDx=0;entryDy=0;entryPerimeter=0;" parent="1" source="13" target="9" edge="1">
                    <mxGeometry relative="1" as="geometry"/>
                </mxCell>
                <mxCell id="13" value="&lt;b&gt;&lt;i&gt;Perform pioneering &lt;br&gt;work &amp;amp; Connect &lt;br&gt;to existing &lt;br&gt;ecosystems &lt;br&gt;using wasm&lt;/i&gt;&lt;/b&gt;" style="shape=parallelogram;perimeter=parallelogramPerimeter;whiteSpace=wrap;html=1;fixedSize=1;fillColor=#f5f5f5;strokeColor=#666666;fontColor=#333333;rounded=1;strokeWidth=3;arcSize=9;shadow=1;fontFamily=Helvetica;" parent="1" vertex="1">
                    <mxGeometry x="330" y="270" width="160" height="80" as="geometry"/>
                </mxCell>
                <mxCell id="42" style="edgeStyle=none;html=1;" parent="1" source="14" target="13" edge="1">
                    <mxGeometry relative="1" as="geometry"/>
                </mxCell>
                <mxCell id="48" value="Solution:" style="edgeLabel;html=1;align=center;verticalAlign=middle;resizable=0;points=[];" parent="42" vertex="1" connectable="0">
                    <mxGeometry x="-0.3193" y="1" relative="1" as="geometry">
                        <mxPoint x="-3" y="6" as="offset"/>
                    </mxGeometry>
                </mxCell>
                <mxCell id="14" value="&lt;b&gt;&lt;i&gt;SCG is novel: &lt;br&gt;No existing systems or&lt;br&gt;libraries to &lt;br&gt;draw from&lt;br&gt;&lt;/i&gt;&lt;/b&gt;" style="shape=parallelogram;perimeter=parallelogramPerimeter;whiteSpace=wrap;html=1;fixedSize=1;rounded=1;strokeWidth=3;arcSize=9;shadow=1;fontFamily=Helvetica;fontColor=#ffffff;strokeColor=#314354;fillColor=#647687;" parent="1" vertex="1">
                    <mxGeometry x="360" y="150" width="160" height="80" as="geometry"/>
                </mxCell>
                <mxCell id="40" value="Solution:" style="edgeStyle=none;html=1;entryX=0.554;entryY=-0.02;entryDx=0;entryDy=0;entryPerimeter=0;" parent="1" source="15" target="6" edge="1">
                    <mxGeometry relative="1" as="geometry"/>
                </mxCell>
                <mxCell id="15" value="&lt;b&gt;&lt;i&gt;CSG is slow &amp;amp; impractical&lt;br&gt;&lt;/i&gt;&lt;/b&gt;" style="shape=parallelogram;perimeter=parallelogramPerimeter;whiteSpace=wrap;html=1;fixedSize=1;rounded=1;strokeWidth=3;arcSize=9;shadow=1;fontFamily=Helvetica;fontColor=#ffffff;strokeColor=#314354;fillColor=#647687;" parent="1" vertex="1">
                    <mxGeometry x="210" y="150" width="150" height="80" as="geometry"/>
                </mxCell>
                <mxCell id="16" value="&lt;b&gt;&lt;i&gt;Problem: Adoption of SCG is held back by three obstacles&lt;br&gt;&lt;/i&gt;&lt;/b&gt;" style="shape=parallelogram;perimeter=parallelogramPerimeter;whiteSpace=wrap;html=1;fixedSize=1;rounded=1;strokeWidth=3;arcSize=9;shadow=1;fontFamily=Helvetica;fontColor=#ffffff;strokeColor=#314354;fillColor=#647687;size=10;" parent="1" vertex="1">
                    <mxGeometry x="230" y="100" width="450" height="40" as="geometry"/>
                </mxCell>
                <mxCell id="44" value="BUT..." style="edgeStyle=none;html=1;exitX=0.5;exitY=1;exitDx=0;exitDy=0;entryX=0.523;entryY=-0.015;entryDx=0;entryDy=0;entryPerimeter=0;" parent="1" source="17" target="16" edge="1">
                    <mxGeometry relative="1" as="geometry"/>
                </mxCell>
                <mxCell id="17" value="&lt;b&gt;&lt;i&gt;Motivation: SCG Would advance Web GIS.&lt;br&gt;&lt;/i&gt;&lt;/b&gt;" style="shape=parallelogram;perimeter=parallelogramPerimeter;whiteSpace=wrap;html=1;fixedSize=1;rounded=1;strokeWidth=3;arcSize=5;shadow=1;fontFamily=Helvetica;fontColor=#ffffff;strokeColor=#006600;fillColor=#009900;size=10;" parent="1" vertex="1">
                    <mxGeometry x="185" y="10" width="450" height="40" as="geometry"/>
                </mxCell>
                <mxCell id="37" style="edgeStyle=none;html=1;entryX=0.575;entryY=0.005;entryDx=0;entryDy=0;entryPerimeter=0;" parent="1" source="19" target="9" edge="1">
                    <mxGeometry relative="1" as="geometry"/>
                </mxCell>
                <mxCell id="19" value="&lt;b&gt;&lt;i&gt;Show how SCG is advantageous in&lt;br&gt;certain situations&lt;br&gt;&lt;/i&gt;&lt;/b&gt;" style="shape=parallelogram;perimeter=parallelogramPerimeter;whiteSpace=wrap;html=1;fixedSize=1;fillColor=#f5f5f5;strokeColor=#666666;fontColor=#333333;rounded=1;strokeWidth=3;arcSize=9;shadow=1;fontFamily=Helvetica;" parent="1" vertex="1">
                    <mxGeometry x="490" y="270" width="150" height="80" as="geometry"/>
                </mxCell>
                <mxCell id="49" value="&lt;b&gt;&lt;i&gt;&lt;div&gt;What is the most fitting methodology of compiling C++ geoprocessing libraries to Web-&lt;/div&gt;&lt;div&gt;Assembly?&lt;/div&gt;&lt;/i&gt;&lt;/b&gt;" style="shape=parallelogram;perimeter=parallelogramPerimeter;whiteSpace=wrap;html=1;fixedSize=1;fillColor=#f5f5f5;strokeColor=#666666;fontColor=#333333;rounded=1;strokeWidth=3;arcSize=9;shadow=1;fontFamily=Helvetica;" parent="1" vertex="1">
                    <mxGeometry x="210" y="580" width="630" height="80" as="geometry"/>
                </mxCell>
                <mxCell id="50" value="&lt;i&gt;&lt;b&gt;How to design and create a client-side geoprocessing environment for data-users?&lt;/b&gt;&lt;br&gt;&lt;/i&gt;" style="shape=parallelogram;perimeter=parallelogramPerimeter;whiteSpace=wrap;html=1;fixedSize=1;fillColor=#f5f5f5;strokeColor=#666666;fontColor=#333333;rounded=1;strokeWidth=3;arcSize=9;shadow=1;fontFamily=Helvetica;" parent="1" vertex="1">
                    <mxGeometry x="185" y="670" width="620" height="80" as="geometry"/>
                </mxCell>
                <mxCell id="51" value="&lt;i&gt;&lt;div&gt;&lt;b&gt;How can wasm-compiled geoprocessing libraries be distributed and used in a client-side&lt;/b&gt;&lt;/div&gt;&lt;div&gt;&lt;b&gt;geoprocessing environment?&lt;/b&gt;&lt;/div&gt;&lt;div style=&quot;font-weight: bold&quot;&gt;&lt;br&gt;&lt;/div&gt;&lt;/i&gt;" style="shape=parallelogram;perimeter=parallelogramPerimeter;whiteSpace=wrap;html=1;fixedSize=1;fillColor=#f5f5f5;strokeColor=#666666;fontColor=#333333;rounded=1;strokeWidth=3;arcSize=9;shadow=1;fontFamily=Helvetica;" parent="1" vertex="1">
                    <mxGeometry x="160" y="760" width="610" height="70" as="geometry"/>
                </mxCell>
                <mxCell id="52" value="&lt;b&gt;&lt;i&gt;&lt;div&gt;What are the advantages and disadvantages of GIS applications created using a client-side&lt;/div&gt;&lt;div&gt;geoprocessing environment powered by WebAssembly?&lt;/div&gt;&lt;/i&gt;&lt;/b&gt;" style="shape=parallelogram;perimeter=parallelogramPerimeter;whiteSpace=wrap;html=1;fixedSize=1;fillColor=#f5f5f5;strokeColor=#666666;fontColor=#333333;rounded=1;strokeWidth=3;arcSize=9;shadow=1;fontFamily=Helvetica;" parent="1" vertex="1">
                    <mxGeometry x="140" y="840" width="610" height="70" as="geometry"/>
                </mxCell>
            </root>
        </mxGraphModel>
    </diagram>
</mxfile>